<?xml version="1.0" encoding="utf-8"?>
<!-- Generator: Adobe Illustrator 16.0.0, SVG Export Plug-In . SVG Version: 6.00 Build 0)  -->
<!DOCTYPE svg PUBLIC "-//W3C//DTD SVG 1.1//EN" "http://www.w3.org/Graphics/SVG/1.1/DTD/svg11.dtd">
<svg version="1.1" xmlns="http://www.w3.org/2000/svg" xmlns:xlink="http://www.w3.org/1999/xlink" x="0px" y="0px"
	 width="841.891px" height="1190.551px" viewBox="0 0 841.891 1190.551" enable-background="new 0 0 841.891 1190.551"
	 xml:space="preserve">
<g id="Layer_2_1_" display="none">
</g>
<g id="Layer_1">
	<g id="Layer_2" display="none">
		<rect x="114" y="294" display="inline" fill="none" stroke="#FFFFFF" stroke-miterlimit="10" width="485" height="885"/>
		
			<rect x="24.78" y="15.761" display="inline" fill="#19351A" stroke="#000000" stroke-width="0.25" stroke-miterlimit="10" width="798.08" height="1163.239"/>
	</g>
	<g>
		<g id="XMLID_2_">
			<g>
			</g>
			<g>
				<polyline fill="none" stroke="#FFFFFF" stroke-miterlimit="10" points="487.403,644.601 487.412,644.601 487.632,644.572 				
					"/>
				<path fill="none" stroke="#FFFFFF" stroke-miterlimit="10" d="M432.492-121.229c0.02-4.53,0.04-9.08,0.05-13.66
					c0.02-5.75,0.05-11.53,0.07-17.34"/>
				<path fill="none" stroke="#FFFFFF" stroke-miterlimit="10" d="M432.452-110.599c0.01-1.71,0.02-3.42,0.02-5.13"/>
				<path fill="none" stroke="#FFFFFF" stroke-miterlimit="10" d="M432.363-85.489c0.02-4.4,0.029-8.83,0.05-13.29
					c0.01-2.96,0.02-5.94,0.03-8.93"/>
				<path fill="none" stroke="#FFFFFF" stroke-miterlimit="10" d="M432.312-70.259c0.011-2.15,0.011-4.3,0.021-6.46"/>
				<path fill="none" stroke="#FFFFFF" stroke-miterlimit="10" d="M432.242-50.789c0.01-2.59,0.02-5.18,0.03-7.79"/>
				<path fill="none" stroke="#FFFFFF" stroke-miterlimit="10" d="M432.142-22.389c0.011-2.96,0.021-5.93,0.03-8.91"/>
				<path fill="none" stroke="#FFFFFF" stroke-miterlimit="10" d="M432.092-7.689c0.01-1.55,0.01-3.11,0.021-4.67"/>
				<path fill="none" stroke="#FFFFFF" stroke-miterlimit="10" d="M432.032,10.091c0.01-2.82,0.02-5.65,0.029-8.5"/>
				<path fill="none" stroke="#FFFFFF" stroke-miterlimit="10" d="M432.002,19.241c0.01-2.51,0.021-5.03,0.03-7.56"/>
				<path fill="none" stroke="#FFFFFF" stroke-miterlimit="10" d="M431.952,34.941c0.01-2.02,0.01-4.06,0.02-6.1
					c0.011-1.87,0.011-3.76,0.021-5.65"/>
				<path fill="none" stroke="#FFFFFF" stroke-miterlimit="10" d="M431.903,50.331c0.01-2.4,0.02-4.81,0.029-7.24"/>
				<path fill="none" stroke="#FFFFFF" stroke-miterlimit="10" d="M431.812,80.141c0.021-4,0.03-8.05,0.04-12.13"/>
				<path fill="none" stroke="#FFFFFF" stroke-miterlimit="10" d="M431.762,98.091c0.011-2.36,0.021-4.73,0.021-7.12"/>
				<path fill="none" stroke="#FFFFFF" stroke-miterlimit="10" d="M431.642,142.231c0.021-7.58,0.04-15.35,0.061-23.3"/>
				<path fill="none" stroke="#FFFFFF" stroke-miterlimit="10" d="M431.852,335.901c-0.029-0.14-0.069-0.28-0.109-0.41
					c-0.4-1.35-0.41-67.86-0.141-177.5c0.011-4.12,0.021-8.29,0.03-12.52"/>
				<path fill="none" stroke="#FFFFFF" stroke-miterlimit="10" d="M432.262,337.802c-0.09-0.52-0.189-1-0.3-1.45"/>
				<path fill="none" stroke="#FFFFFF" stroke-miterlimit="10" d="M432.922,343.231c-0.05-0.68-0.11-1.33-0.18-1.96"/>
				<path fill="none" stroke="#FFFFFF" stroke-miterlimit="10" d="M433.242,349.041c-0.01-0.51-0.03-1.01-0.061-1.5"/>
				<path fill="none" stroke="#FFFFFF" stroke-miterlimit="10" d="M433.302,614.131c-0.13-0.45-0.26-0.859-0.39-1.25"/>
				<path fill="none" stroke="#FFFFFF" stroke-miterlimit="10" d="M434.023,616.971c-0.12-0.52-0.24-1.02-0.36-1.489"/>
				<path fill="none" stroke="#FFFFFF" stroke-miterlimit="10" d="M434.452,618.961c-0.12-0.59-0.24-1.16-0.37-1.7"/>
				<path fill="none" stroke="#FFFFFF" stroke-miterlimit="10" d="M434.882,621.152c-0.07-0.41-0.149-0.801-0.229-1.19"/>
				<path fill="none" stroke="#FFFFFF" stroke-miterlimit="10" d="M435.462,624.371c-0.14-0.79-0.27-1.56-0.41-2.3"/>
				<path fill="none" stroke="#FFFFFF" stroke-miterlimit="10" d="M436.172,628.812c-0.18-1.141-0.35-2.24-0.53-3.301"/>
				<path fill="none" stroke="#FFFFFF" stroke-miterlimit="10" d="M437.552,638.791c-0.12-0.89-0.229-1.77-0.35-2.64"/>
				<path fill="none" stroke="#FFFFFF" stroke-miterlimit="10" d="M437.962,642.091c-0.07-0.56-0.14-1.12-0.21-1.67"/>
				<path fill="none" stroke="#FFFFFF" stroke-miterlimit="10" d="M438.233,644.341c-0.07-0.58-0.141-1.149-0.21-1.71"/>
				<path fill="none" stroke="#FFFFFF" stroke-miterlimit="10" d="M438.752,648.862c-0.15-1.351-0.3-2.681-0.46-3.98"/>
				<path fill="none" stroke="#FFFFFF" stroke-miterlimit="10" d="M440.842,669.551c-0.54-5.96-1.13-11.899-1.75-17.59"/>
				<path fill="none" stroke="#FFFFFF" stroke-miterlimit="10" d="M441.512,677.051c-0.189-2.21-0.39-4.439-0.59-6.66"/>
				<path fill="none" stroke="#FFFFFF" stroke-miterlimit="10" d="M441.722,679.572c-0.05-0.57-0.09-1.141-0.14-1.71"/>
				<path fill="none" stroke="#FFFFFF" stroke-miterlimit="10" d="M442.502,689.281c-0.04-0.57-0.09-1.141-0.14-1.72"/>
				<path fill="none" stroke="#FFFFFF" stroke-miterlimit="10" d="M443.102,697.562c-0.04-0.58-0.079-1.171-0.119-1.761"/>
				<path fill="none" stroke="#FFFFFF" stroke-miterlimit="10" d="M443.613,705.261c-0.03-0.55-0.061-1.109-0.101-1.67"/>
				<path fill="none" stroke="#FFFFFF" stroke-miterlimit="10" d="M444.552,730.781c0.01-0.22,0.021-0.47,0.03-0.73"/>
				<path fill="none" stroke="#FFFFFF" stroke-miterlimit="10" d="M444.273,732.631c0.109-0.109,0.189-0.53,0.239-1.21"/>
				<path fill="none" stroke="#FFFFFF" stroke-miterlimit="10" d="M428.403,802.822c0.029-0.78,0.06-1.53,0.09-2.24
					c0.35-7.47,0.229-33.8,0.1-50.03c-0.05-7.739-0.1-13.18-0.1-13.18"/>
				<path fill="none" stroke="#FFFFFF" stroke-miterlimit="10" d="M412.602,896.701c0.12-0.73,0.17-1.351,0.14-1.79
					c-0.03-0.37-0.11-1.46-0.43-2.87l0.18-0.04"/>
				<path fill="none" stroke="#FFFFFF" stroke-miterlimit="10" d="M412.422,897.671c0.07-0.33,0.13-0.64,0.17-0.939"/>
				<path fill="none" stroke="#FFFFFF" stroke-miterlimit="10" d="M411.792,900.072c0.08-0.23,0.14-0.471,0.2-0.7"/>
				<path fill="none" stroke="#FFFFFF" stroke-miterlimit="10" d="M411.572,900.751c0.04-0.11,0.08-0.229,0.11-0.34"/>
				<path fill="none" stroke="#FFFFFF" stroke-miterlimit="10" d="M410.032,904.051c0.11-0.149,0.21-0.31,0.3-0.479"/>
				<path fill="none" stroke="#FFFFFF" stroke-miterlimit="10" d="M409.552,904.652h0.01c0.16-0.17,0.31-0.36,0.46-0.59"/>
				<path fill="none" stroke="#FFFFFF" stroke-miterlimit="10" d="M391.262,904.041c0.41,0.37,0.84,0.72,1.29,1.05"/>
				<path fill="none" stroke="#FFFFFF" stroke-miterlimit="10" d="M388.442,900.891c0.59,0.811,1.34,1.721,2.22,2.591"/>
				<path fill="none" stroke="#FFFFFF" stroke-miterlimit="10" d="M387.912,900.112c0.11,0.17,0.22,0.34,0.34,0.51"/>
				<path fill="none" stroke="#FFFFFF" stroke-miterlimit="10" d="M384.242,891.911h0.01c1.11,2.87,2.26,5.01,2.86,6.72
					c0.05,0.15,0.15,0.36,0.28,0.61"/>
				<polyline fill="none" stroke="#FFFFFF" stroke-miterlimit="10" points="377.622,892.091 377.732,892.091 384.042,891.921 				
					"/>
				<path fill="none" stroke="#FFFFFF" stroke-miterlimit="10" d="M377.562,914.951c0.01-0.2,0.02-0.4,0.03-0.62"/>
				<path fill="none" stroke="#FFFFFF" stroke-miterlimit="10" d="M377.132,916.951c0.09-0.17,0.17-0.351,0.23-0.53l0.01-0.01
					c0.06-0.19,0.11-0.5,0.15-0.9"/>
				<path fill="none" stroke="#FFFFFF" stroke-miterlimit="10" d="M309.072,894.101c0.84-0.069,1.62-0.159,2.29-0.3
					c4.96-1.05,4.3-2.63,41.27-1.71l0.1,0.021h0.01c-0.3,5.1-0.58,10.479-0.43,12.85c0.08,1.22-0.1,4.15,0.54,6.94
					c0.15,0.62,0.33,1.239,0.56,1.819c0.3,0.74,0.67,1.42,1.15,2.03"/>
				<path fill="none" stroke="#FFFFFF" stroke-miterlimit="10" d="M302.252,894.072c2.23,0.1,4.72,0.17,6.81,0.029"/>
				<path fill="none" stroke="#FFFFFF" stroke-miterlimit="10" d="M300.302,893.961c0.53,0.03,1.1,0.061,1.68,0.09"/>
				<path fill="none" stroke="#FFFFFF" stroke-miterlimit="10" d="M299.152,893.891c0.28,0.021,0.57,0.03,0.87,0.051"/>
				<path fill="none" stroke="#FFFFFF" stroke-miterlimit="10" d="M247.972,889.031l48.36,4.77c0.06-0.01,0.13-0.01,0.21,0"/>
				<path fill="none" stroke="#FFFFFF" stroke-miterlimit="10" d="M264.032,907.881c0.67-0.67,1.16-2.8,1.37-4.7
					c0.2-1.659,0.18-3.149-0.1-3.319"/>
				<path fill="none" stroke="#FFFFFF" stroke-miterlimit="10" d="M263.752,908.562c-0.04-0.04-0.07-0.07-0.09-0.091
					c-0.09-0.109-0.13-0.199-0.1-0.27c0.01-0.01,0.02-0.03,0.04-0.04"/>
				<path fill="none" stroke="#FFFFFF" stroke-miterlimit="10" d="M267.322,910.732c-0.06-0.051-0.12-0.091-0.18-0.131"/>
				<path fill="none" stroke="#FFFFFF" stroke-miterlimit="10" d="M268.102,912.022c0.24-0.221,0.12-0.511-0.19-0.811
					c-0.04-0.05-0.08-0.09-0.12-0.12"/>
				<path fill="none" stroke="#FFFFFF" stroke-miterlimit="10" d="M267.812,913.551c-0.46-0.45-0.69-0.81-0.43-1.08"/>
				<path fill="none" stroke="#FFFFFF" stroke-miterlimit="10" d="M268.292,913.991c-0.12-0.11-0.23-0.21-0.33-0.3"/>
				<path fill="none" stroke="#FFFFFF" stroke-miterlimit="10" d="M269.072,914.661c-0.14-0.12-0.27-0.24-0.4-0.35"/>
				<path fill="none" stroke="#FFFFFF" stroke-miterlimit="10" d="M270.992,923.192c-0.36-0.341-0.37-0.98,0.25-2.25
					c1.14-2.341,0-4.15-1.35-5.5c-0.06-0.08-0.13-0.15-0.2-0.2"/>
				<path fill="none" stroke="#FFFFFF" stroke-miterlimit="10" d="M421.172,938.121c-1.64-0.47-3.45-0.98-5.19-1.5
					c-1.24-0.37-2.45-0.74-3.54-1.1c-0.65-0.221-1.26-0.431-1.81-0.631"/>
				<path fill="none" stroke="#FFFFFF" stroke-miterlimit="10" d="M425.323,939.362c-0.3-0.101-0.63-0.21-1-0.32
					c-0.36-0.11-0.75-0.22-1.16-0.34"/>
				<path fill="none" stroke="#FFFFFF" stroke-miterlimit="10" d="M425.472,1115.072c0.04-3.16,0.08-6.37,0.11-9.62"/>
				<path fill="none" stroke="#FFFFFF" stroke-miterlimit="10" d="M425.302,1129.181c0.04-2.989,0.08-6.04,0.11-9.149"/>
				<path fill="none" stroke="#FFFFFF" stroke-miterlimit="10" d="M425.222,1135.911c0.03-2.15,0.061-4.35,0.08-6.58"/>
				<path fill="none" stroke="#FFFFFF" stroke-miterlimit="10" d="M425.142,1142.371c0.03-2.07,0.061-4.18,0.08-6.33"/>
				<path fill="none" stroke="#FFFFFF" stroke-miterlimit="10" d="M425.092,1146.522c0.021-1.32,0.04-2.671,0.05-4.03"/>
				<path fill="none" stroke="#FFFFFF" stroke-miterlimit="10" d="M424.773,1172.801c0.09-7.09,0.199-16,0.319-26.17"/>
				<path fill="none" stroke="#FFFFFF" stroke-miterlimit="10" d="M501.512,1190.272l-76.95,0.27c0-0.24,0.08-6.82,0.211-17.7"/>
				<path fill="none" stroke="#FFFFFF" stroke-miterlimit="10" d="M501.312,1148.671c0.181,20.55,0.261,34.851,0.221,39.851"/>
				<path fill="none" stroke="#FFFFFF" stroke-miterlimit="10" d="M501.273,1144.141c0.02,1.44,0.029,2.851,0.039,4.23"/>
				<path fill="none" stroke="#FFFFFF" stroke-miterlimit="10" d="M501.233,1139.431c0.02,1.49,0.029,2.96,0.04,4.41"/>
				<path fill="none" stroke="#FFFFFF" stroke-miterlimit="10" d="M501.202,1136.192c0.01,0.989,0.02,1.96,0.03,2.93"/>
				<path fill="none" stroke="#FFFFFF" stroke-miterlimit="10" d="M501.172,1132.871c0.01,1.01,0.021,2.01,0.03,3"/>
				<path fill="none" stroke="#FFFFFF" stroke-miterlimit="10" d="M501.142,1129.471c0.011,1.03,0.021,2.061,0.03,3.07"/>
				<path fill="none" stroke="#FFFFFF" stroke-miterlimit="10" d="M501.092,1124.241c0.01,1.07,0.021,2.13,0.03,3.18"/>
				<path fill="none" stroke="#FFFFFF" stroke-miterlimit="10" d="M501.042,1118.851c0.01,1.101,0.02,2.19,0.03,3.271"/>
				<path fill="none" stroke="#FFFFFF" stroke-miterlimit="10" d="M500.952,1109.522c0.02,1.79,0.04,3.56,0.05,5.31"/>
				<path fill="none" stroke="#FFFFFF" stroke-miterlimit="10" d="M500.682,1083.531c0.04,2.66,0.061,5.29,0.091,7.89"/>
				<path fill="none" stroke="#FFFFFF" stroke-miterlimit="10" d="M500.552,1070.781c0.03,2.76,0.061,5.49,0.09,8.189"/>
				<path fill="none" stroke="#FFFFFF" stroke-miterlimit="10" d="M500.312,1048.701c0.07,5.89,0.131,11.7,0.19,17.399"/>
				<path fill="none" stroke="#FFFFFF" stroke-miterlimit="10" d="M500.052,1025.791c0.101,7.63,0.181,15.17,0.26,22.57"/>
				<path fill="none" stroke="#FFFFFF" stroke-miterlimit="10" d="M499.892,1011.741c0.061,4.6,0.11,9.17,0.16,13.71"/>
				<path fill="none" stroke="#FFFFFF" stroke-miterlimit="10" d="M499.782,1002.281c0.04,3.05,0.08,6.1,0.109,9.13"/>
				<path fill="none" stroke="#FFFFFF" stroke-miterlimit="10" d="M499.613,988.011c0.06,4.66,0.12,9.32,0.17,13.95"/>
				<path fill="none" stroke="#FFFFFF" stroke-miterlimit="10" d="M499.382,968.881c0.061,4.681,0.12,9.36,0.17,14.04"/>
				<path fill="none" stroke="#FFFFFF" stroke-miterlimit="10" d="M498.412,893.772c0.13,8.949,0.25,18.09,0.37,27.369"/>
				<path fill="none" stroke="#FFFFFF" stroke-miterlimit="10" d="M497.983,863.091c0.13,8.4,0.25,17.08,0.369,25.971"/>
				<path fill="none" stroke="#FFFFFF" stroke-miterlimit="10" d="M497.502,830.911c0.1,6.27,0.2,12.8,0.3,19.54"/>
				<path fill="none" stroke="#FFFFFF" stroke-miterlimit="10" d="M496.812,790.551c0.021,0.94,0.03,1.891,0.051,2.86"/>
				<path fill="none" stroke="#FFFFFF" stroke-miterlimit="10" d="M496.702,784.961c0.02,0.88,0.04,1.78,0.05,2.69"/>
				<path fill="none" stroke="#FFFFFF" stroke-miterlimit="10" d="M496.622,781.011c0.02,0.83,0.04,1.681,0.05,2.551"/>
				<path fill="none" stroke="#FFFFFF" stroke-miterlimit="10" d="M496.542,777.261c0.02,0.79,0.04,1.601,0.05,2.42"/>
				<path fill="none" stroke="#FFFFFF" stroke-miterlimit="10" d="M496.492,774.891c0.02,0.761,0.03,1.53,0.05,2.32"/>
				<path fill="none" stroke="#FFFFFF" stroke-miterlimit="10" d="M496.412,771.522c0.02,0.71,0.04,1.43,0.05,2.18"/>
				<path fill="none" stroke="#FFFFFF" stroke-miterlimit="10" d="M496.363,769.402c0.02,0.68,0.04,1.37,0.05,2.08"/>
				<path fill="none" stroke="#FFFFFF" stroke-miterlimit="10" d="M496.312,767.391c0.021,0.641,0.04,1.301,0.051,1.971"/>
				<path fill="none" stroke="#FFFFFF" stroke-miterlimit="10" d="M496.242,764.562c0.03,0.89,0.05,1.819,0.069,2.789"/>
				<path fill="none" stroke="#FFFFFF" stroke-miterlimit="10" d="M496.193,762.822c0.02,0.55,0.04,1.12,0.05,1.71"/>
				<path fill="none" stroke="#FFFFFF" stroke-miterlimit="10" d="M496.122,760.411c0.03,0.75,0.05,1.54,0.07,2.38"/>
				<path fill="none" stroke="#FFFFFF" stroke-miterlimit="10" d="M496.032,757.612c0.029,0.85,0.06,1.77,0.09,2.779"/>
				<path fill="none" stroke="#FFFFFF" stroke-miterlimit="10" d="M495.882,753.862c0.05,0.989,0.101,2.239,0.15,3.729"/>
				<path fill="none" stroke="#FFFFFF" stroke-miterlimit="10" d="M492.342,702.192c0.44,7.909,0.74,14.68,0.74,17.79
					c0,9.899,1.85,27.02,2.61,31.199c0.06,0.33,0.13,1.23,0.189,2.66"/>
				<path fill="none" stroke="#FFFFFF" stroke-miterlimit="10" d="M491.943,695.181c0.149,2.381,0.279,4.73,0.399,6.99"/>
				<path fill="none" stroke="#FFFFFF" stroke-miterlimit="10" d="M491.502,687.951c0.16,2.399,0.3,4.83,0.44,7.22"/>
				<path fill="none" stroke="#FFFFFF" stroke-miterlimit="10" d="M491.162,682.612c0.12,1.75,0.229,3.529,0.34,5.33"/>
				<path fill="none" stroke="#FFFFFF" stroke-miterlimit="10" d="M490.932,679.171c0.08,1.12,0.15,2.271,0.23,3.43"/>
				<path fill="none" stroke="#FFFFFF" stroke-miterlimit="10" d="M489.712,663.041c0.19,1.99,0.41,4.81,0.66,8.15
					c0.01,0.02,0.01,0.05,0.01,0.069c0,0.011,0,0.011,0,0.021c0.18,2.399,0.36,5.06,0.55,7.88"/>
				<path fill="none" stroke="#FFFFFF" stroke-miterlimit="10" d="M489.542,661.341c0.02,0.16,0.04,0.32,0.05,0.49"/>
				<path fill="none" stroke="#FFFFFF" stroke-miterlimit="10" d="M489.492,660.911c0.02,0.13,0.03,0.27,0.05,0.42"/>
				<path fill="none" stroke="#FFFFFF" stroke-miterlimit="10" d="M489.023,657.862c0.149,1.09,0.27,1.859,0.35,2.21
					c0.03,0.13,0.06,0.35,0.1,0.649"/>
				<path fill="none" stroke="#FFFFFF" stroke-miterlimit="10" d="M488.863,656.652c0.06,0.43,0.109,0.83,0.16,1.199"/>
				<path fill="none" stroke="#FFFFFF" stroke-miterlimit="10" d="M487.042,641.442c0.13,1.06,0.25,2.12,0.37,3.149v0.01
					c0.5,4.301,0.96,8.261,1.33,11.131"/>
				<path fill="none" stroke="#FFFFFF" stroke-miterlimit="10" d="M486.552,637.152c0.13,1.069,0.25,2.14,0.37,3.199"/>
				<path fill="none" stroke="#FFFFFF" stroke-miterlimit="10" d="M484.073,614.322c0.05,0.39,0.1,0.76,0.149,1.1
					c0.051,0.34,0.09,0.65,0.12,0.93"/>
				<path fill="none" stroke="#FFFFFF" stroke-miterlimit="10" d="M482.693,604.911c0.33,2.18,0.63,4.21,0.89,6
					c0.08,0.51,0.15,1,0.21,1.46"/>
				<path fill="none" stroke="#FFFFFF" stroke-miterlimit="10" d="M477.823,570.331c-0.021-0.07-0.04-0.09-0.05-0.06
					c-0.011,0.01-0.011,0.02-0.011,0.03c-0.17,1.02,2.88,20.81,4.931,34.6"/>
				<path fill="none" stroke="#FFFFFF" stroke-miterlimit="10" d="M477.892,514.391c0-0.01,0.011-0.01,0.011-0.01v56.16
					c0-0.01-0.011-0.02-0.011-0.03c-0.02-0.08-0.04-0.13-0.069-0.17"/>
				<path fill="none" stroke="#FFFFFF" stroke-miterlimit="10" d="M472.462,513.781c1.68,0.81,3.42,1.4,5,0.8"/>
				<path fill="none" stroke="#FFFFFF" stroke-miterlimit="10" d="M469.582,512.271c0.72,0.36,1.479,0.79,2.27,1.21"/>
				<path fill="none" stroke="#FFFFFF" stroke-miterlimit="10" d="M453.222,510.541c0.49,0.06,0.98,0.13,1.471,0.19"/>
				<path fill="none" stroke="#FFFFFF" stroke-miterlimit="10" d="M448.693,509.851c0.54,0.09,1.14,0.19,1.779,0.29"/>
				<path fill="none" stroke="#FFFFFF" stroke-miterlimit="10" d="M443.782,506.511c1.87,0.62-0.26,1.94,2.16,2.74
					c0.489,0.17,1.46,0.37,2.739,0.6"/>
				<path fill="none" stroke="#FFFFFF" stroke-miterlimit="10" d="M441.653,500.701h0.01c0.06,0.05,0.11,0.1,0.16,0.17
					c0.6,0.65,0.5,1.68,0.399,2.68c-0.09,0.95-0.18,1.87,0.33,2.42"/>
				<path fill="none" stroke="#FFFFFF" stroke-miterlimit="10" d="M442.323,498.572c-0.101,0.1-0.19,0.2-0.28,0.29
					c-0.57,0.62-0.89,1.24-0.52,1.71"/>
				<path fill="none" stroke="#FFFFFF" stroke-miterlimit="10" d="M444.812,496.161c0.021,0,0.03,0.01,0.04,0.04
					c0.08,0.05-0.01,0.2-0.199,0.39c-0.03,0.03-0.061,0.06-0.091,0.09"/>
				<path fill="none" stroke="#FFFFFF" stroke-miterlimit="10" d="M441.102,491.601c-0.619,0.64-0.96,1.39-0.859,2.25
					c0.17,1.52,0.479,2.34,0.87,2.74"/>
				<path fill="none" stroke="#FFFFFF" stroke-miterlimit="10" d="M453.312,482.371c-0.05,0.04-0.09,0.08-0.13,0.13
					c-0.56,0.64-0.239,1.71,0.471,3.36c0.08,0.18,0.029,0.35-0.12,0.5"/>
				<path fill="none" stroke="#FFFFFF" stroke-miterlimit="10" d="M432.613-153.299c0.12-31.36,0.239-63.71,0.37-96.9l40.17-2.03
					c0,30.62,0,60.54,0,89.63"/>
				<path fill="none" stroke="#FFFFFF" stroke-miterlimit="10" d="M320.402,650.211c0.17,1.05-12.83,65.16-11.71,72.19
					c1.14,7.13,0.86,11.979,1.71,12.55c0.86,0.57,30.82,6.56,33.39,4.28c2.56-2.28,44.22-5.99,48.79-11.98
					c4.56-5.99,19.68,7.7,22.54,5.71c0.86-0.6,2.15-0.35,3.59,0.28c3.33,1.46,7.39,4.97,8.39,4.56c0.21-0.08,0.7-0.229,1.381-0.43
					h0.01c3.84-1.11,13.79-3.73,15.729-4.7c0.021-0.01,0.03-0.02,0.051-0.04c0.1-0.14,0.18-0.55,0.239-1.21
					c0.011-0.189,0.021-0.399,0.04-0.64c0.01-0.22,0.021-0.47,0.03-0.73c0.11-4.27-0.25-13.39-0.97-24.79
					c-0.03-0.55-0.061-1.109-0.101-1.67c-0.13-1.96-0.26-3.97-0.41-6.029c-0.04-0.58-0.079-1.171-0.119-1.761
					c-0.15-2.13-0.311-4.31-0.48-6.52c-0.04-0.57-0.09-1.141-0.14-1.72c-0.2-2.631-0.42-5.301-0.641-7.99
					c-0.05-0.57-0.1-1.141-0.14-1.71c-0.03-0.271-0.05-0.54-0.07-0.811c-0.2-2.21-0.39-4.439-0.59-6.66
					c-0.03-0.279-0.06-0.56-0.08-0.84c-0.55-5.96-1.14-11.89-1.75-17.59c-0.12-1.04-0.229-2.07-0.34-3.1
					c-0.16-1.351-0.31-2.681-0.46-3.98c-0.02-0.18-0.05-0.359-0.06-0.54c-0.07-0.569-0.141-1.14-0.21-1.71
					c-0.021-0.18-0.04-0.359-0.061-0.54c-0.07-0.56-0.14-1.12-0.21-1.67s-0.14-1.09-0.2-1.63c-0.12-0.89-0.229-1.77-0.35-2.64
					c-0.34-2.58-0.69-5.04-1.03-7.34c-0.18-1.141-0.35-2.24-0.53-3.301c-0.06-0.39-0.13-0.77-0.18-1.14
					c-0.14-0.8-0.28-1.56-0.41-2.3c-0.06-0.311-0.12-0.62-0.17-0.92c-0.08-0.41-0.149-0.801-0.229-1.19c-0.07-0.34-0.141-0.67-0.2-1
					c-0.12-0.59-0.25-1.16-0.37-1.7c-0.021-0.1-0.04-0.189-0.06-0.29c-0.12-0.52-0.24-1.02-0.36-1.489
					c-0.12-0.48-0.25-0.931-0.36-1.351c-0.13-0.45-0.26-0.859-0.39-1.25c-0.521-1.55-1.03-2.55-1.53-2.899
					c-6.56-4.57,1.71-61.63,1.71-63.061c0-1.42,1.71-63.06-0.85-65.91c-2.57-2.85-8.851-2.85-10.561-4.28
					c-1.56-1.3-10.24-10.67-13.49-10.36c-0.32,0.03-0.58,0.15-0.78,0.37c-2.28,2.57-8.84,13.98-8.27,16.55
					c0.57,2.57-5.42,25.68-3.14,27.39c2.28,1.72-11.41,2-12.55,0.86c-1.14-1.14-0.29-28.53-7.14-28.53
					c-5.24,0-12.55-8.08-15.68-11.87c-0.96-1.16-1.53-1.92-1.53-1.92s-12.51,9.53-17.5,12.25c-0.65,0.35-1.17,0.59-1.52,0.68
					c-3.05,0.76-28.16,8.37-30.44,23.59c-2.28,15.22-10.36,32.62-9.51,42.61c0.85,9.98-2.57,41.08-2.57,41.08s5.71,30.53,7.71,32.25
					c1.99,1.71,14.55,29.391,15.12,28.53"/>
				<path fill="none" stroke="#FFFFFF" stroke-miterlimit="10" d="M478.943,492.101c-2.28-1.37-4.45-2.68-6.19-4.53
					c-4.56-4.85-17.97-5.99-19.11-5.42c-0.13,0.06-0.239,0.14-0.33,0.22c-0.05,0.03-0.09,0.07-0.13,0.13
					c-0.58,0.63-0.25,1.7,0.46,3.36c0.07,0.17,0.03,0.34-0.109,0.5c-1.24,1.37-9.641,2.37-12.431,5.24
					c-0.63,0.64-0.97,1.38-0.869,2.25c0.17,1.53,0.479,2.35,0.88,2.74c0.939,0.95,2.35-0.46,3.489-0.46c0.091,0,0.16,0.01,0.21,0.03
					c0.021,0.01,0.03,0.02,0.04,0.04c0.061,0.07-0.029,0.2-0.199,0.39c-0.03,0.02-0.061,0.05-0.091,0.09
					c-0.5,0.45-1.489,1.16-2.239,1.89c-0.101,0.09-0.19,0.19-0.28,0.29c-0.58,0.62-0.91,1.24-0.52,1.71
					c0.039,0.05,0.079,0.09,0.13,0.13c0.06,0.05,0.12,0.11,0.17,0.17c0.59,0.66,0.489,1.69,0.399,2.68
					c-0.1,0.96-0.189,1.88,0.33,2.42c0.181,0.2,0.44,0.35,0.811,0.43c0.16,0.04,0.3,0.07,0.42,0.11c1.85,0.64-0.26,1.94,2.149,2.75
					c0.49,0.16,1.471,0.37,2.75,0.59h0.011c0.54,0.1,1.14,0.2,1.779,0.29c0.86,0.13,1.78,0.27,2.75,0.4
					c0.48,0.06,0.971,0.13,1.471,0.19c5.06,0.64,10.63,1.13,12.069,0.81c0.771-0.17,1.73,0.19,2.82,0.73
					c0.71,0.36,1.479,0.8,2.27,1.21c0.2,0.1,0.41,0.2,0.61,0.3c1.68,0.82,3.42,1.41,5,0.8c0.14-0.05,0.29-0.11,0.43-0.19v56.12v0.04
					v0.91c0,0,19.4-15.12,21.11-24.25s6.85,3.7,6.85-8.85c0-12.55-11.13-17.69-13.979-20.26c-2.85-2.56,2.57-8.56-2.271-16.56
					C486.592,496.611,482.622,494.291,478.943,492.101z"/>
				<path fill="none" stroke="#FFFFFF" stroke-miterlimit="10" d="M320.392,650.211c0,0,0,0,0.01,0v-0.01
					c0.52-0.34,17.21-11.28,23.39-21.11c6.27-9.979-0.86-9.13,0-9.979c0.85-0.86-1.72-9.42-5.14-13.13s-4.24-6.841-5.26-8.561
					c-1.02-1.71-3.3-7.99-3.3-7.99s-0.57-6.84-0.29-8.55"/>
				<path fill="none" stroke="#FFFFFF" stroke-miterlimit="10" d="M341.602,632.232c0.95-0.66,20.26-8.881,20.26-11.12"/>
				<path fill="none" stroke="#FFFFFF" stroke-miterlimit="10" d="M361.032,471.011c0,0,3.76-3.85,9.95-7.06
					c4.1-2.12-1.87-2.3-4.97-3.91c-2.63-1.35-2.31-4.26-1.97-6.14c0.58-3.09-0.5-5.85-0.5-6.99s-2.71-10.19-2.67-11.82
					c0.04-1.63,2.79-7.86,3.94-8.71c0.53-0.4,0.87-2.28,1.03-4.35c0.07-0.87,0.1-1.76,0.1-2.6c0.01-1.47-0.09-2.74-0.28-3.33
					c-0.57-1.71,2.28-11.98,3.99-13.69c1.72-1.71-4.07-2.57-2.46-4.85s6.46-5.71,10.45-5.71c4,0,11.7,0.57,13.99,0
					c2.28-0.57,13.41,0.57,15.12,2.28c1.71,1.72,6.56,4,7.99,5.71c1.42,1.71,8.84,10.56,9.7,13.13
					c0.859,2.56,1.43,10.27,1.989,12.27c0.58,1.99,1.431,5.13,0,9.12c-1.42,4-2.56,4.57-4.27,6.57c-1.72,2-5.14,4.56-4.85,7.42
					c0.28,2.85,2.85,3.7,0.85,8.84c-2,5.14-5.13,4.85-5.13,4.85s-3.71,0.57-4.57,0.57s-2.57,0-2.57,0s-1.42,0.57-1.42,1.43
					s2.3,1.94,3.72,2.33"/>
				<path fill="none" stroke="#FFFFFF" stroke-miterlimit="10" d="M369.652,402.411c0,0,6.57,1.29,9.61,0
					c3.05-1.29,7.8,0.15,8.37,0.57c0.57,0.42,5.41,4.8,6.41,4.8c1.01,0,3.67,1.9,4.05,3.42c0.38,1.52,0.76,4.57,0.76,4.57
					s-1.52,2.09-0.95,3.61c0.57,1.52,1.9,2.66,2.1,3.99c0.19,1.34,1.33,3.62,1.33,5.33s-0.95,4,0,5.9s3.99-0.57,7.41,0
					c3.43,0.56,6.09,0.94,6.28,1.9c0.19,0.95-1.52,4.37-1.52,5.32c0,0.96-2.28,0.76-2.28,1.91c0,1.14-3.62,1.32-3.62,2.85
					c0,1.52-1.45,6.49-1.08,8.5c0.18,0.94-0.63,5.77-0.63,7.53"/>
				<path fill="none" stroke="#FFFFFF" stroke-miterlimit="10" d="M377.832,425.111c0.45,0.47,2.05,0.71,2.5,0.71
					s2.03-0.66,1.87-0.43"/>
				<path fill="none" stroke="#FFFFFF" stroke-miterlimit="10" d="M379.392,421.221c-0.16,0.05-0.3,0.1-0.41,0.16
					c-0.32,0.15-1.56,1.69-1.91,2.27c-0.06,0.1-0.09,0.17-0.09,0.2c0,0.21,0.1,0.44,0.25,0.65"/>
				<path fill="none" stroke="#FFFFFF" stroke-miterlimit="10" d="M387.632,423.851l-2.28-1.45c0,0-1.81-1.31-2.85-1.41
					c-0.88-0.08-2.23-0.02-3.09,0.23"/>
				<path fill="none" stroke="#FFFFFF" stroke-miterlimit="10" d="M377.022,423.611c0.02,0.02,0.03,0.03,0.05,0.04
					c0.82,0.73,1.73,0.27,2.16-0.02c0.85-0.59,0.79-0.31,0.79-1.49c0,0,0.15-0.88-0.61-0.92c-0.01,0-0.01,0-0.02,0"/>
				<path fill="none" stroke="#FFFFFF" stroke-miterlimit="10" d="M365.942,419.431c1.69-0.68,2.38,0.12,2.44,1.23
					c0.01,0.1,0.01,0.2,0.01,0.3c-0.01,0.38-0.05,3.25-0.45,4.51"/>
				<path fill="none" stroke="#FFFFFF" stroke-miterlimit="10" d="M365.942,422.041c0.66,0.04,1.69,0.58,2.44-1.38
					c0.01-0.02,0.01-0.03,0.02-0.05"/>
				<path fill="none" stroke="#FFFFFF" stroke-miterlimit="10" d="M343.792,739.232c-0.86,3.71-1.4,31.779-1.59,33.569
					c-1.17,11.23,1.69,28.23,3.68,33.58c4.28,11.51,5.61,20.44,5.61,21.59c0,1.141,3.55,15.32,4.66,19.49
					c1.62,6.09,1.33,15.89,1.62,16.75c1.06,3.2,1.78,5.73,1.42,6.561c-1.72,4.02-5.9,11.319-6.01,13.51
					c-0.1,2.09-0.28,4.91-0.45,7.83c-0.3,5.1-0.58,10.489-0.43,12.85c0.08,1.22-0.1,4.15,0.55,6.94c0.14,0.62,0.32,1.239,0.56,1.819
					c0.29,0.74,0.67,1.42,1.15,2.03s1.07,1.13,1.78,1.53c4.57,2.56,10.46,3.66,12.55,3.66c2.15,0,6.83-1.37,8.24-3.99
					c0.09-0.17,0.17-0.351,0.23-0.53c0.06-0.189,0.11-0.5,0.16-0.91c0.01-0.17,0.02-0.359,0.04-0.56c0.01-0.19,0.02-0.4,0.03-0.62
					c0.12-3.27-0.11-9.03,0.04-10.54c0.11-1.09,0.03-7.44-0.01-11.69v-0.01c-0.02-1.689-0.03-3.029-0.02-3.6
					c0.03-1.99,1.03-5.57,0.74-11.76c-0.29-6.431,5.07,12.949,5.68,14.58c0.08,0.199,0.15,0.399,0.22,0.6
					c1.11,2.87,2.26,5.01,2.86,6.72c0.06,0.15,0.15,0.36,0.29,0.61c0.13,0.25,0.31,0.55,0.52,0.87c0.1,0.17,0.21,0.34,0.34,0.51
					c0.06,0.09,0.12,0.18,0.19,0.27c0.58,0.82,1.34,1.73,2.22,2.591c0.19,0.189,0.39,0.38,0.6,0.56c0.41,0.38,0.84,0.73,1.29,1.05
					c0.69,0.48,1.41,0.891,2.17,1.2c2.99,1.21,11.55,1.79,14.83-1.64c0.16-0.17,0.32-0.37,0.47-0.59
					c0.01-0.011,0.01-0.011,0.01-0.011c0.1-0.149,0.2-0.31,0.3-0.479c0.46-0.79,0.88-1.78,1.24-2.82c0.03-0.11,0.07-0.22,0.11-0.34
					c0.03-0.11,0.07-0.22,0.11-0.34c0.07-0.23,0.14-0.46,0.2-0.7c0.17-0.58,0.31-1.16,0.43-1.7c0.07-0.33,0.12-0.649,0.17-0.939
					c0-0.011,0.01-0.021,0.01-0.03c0.11-0.73,0.16-1.351,0.13-1.79c-0.03-0.37-0.11-1.46-0.43-2.87c-0.44-1.95-1.34-4.53-3.18-6.72
					c-2.35-2.8-10.17-9.51-10.46-11.23c-0.28-1.71-3.04-7.609-3.33-10.18c-0.28-2.57-0.19-9.69-0.19-11.69
					c0-3.029,4.05-16.149,4.4-18.72c0.74-5.53,6.76-22.479,7.59-28.36c0.71-5.06,1.71-15.05,0.57-20.899
					c-1.06-5.44-1.14-28.74-0.86-33.021c0.29-4.279,5.71-10.56,5.71-11.989c0-1.431,6.16-5.99,6.16-5.99"/>
				<path fill="none" stroke="#FFFFFF" stroke-miterlimit="10" d="M373.742,814.562c0,1.71-1.99,9.979-1.99,10.84
					c0,0.859,1.14,13.13,1,14.27c-0.15,1.141-1.29,9.98-1,10.84c0.28,0.86,3.42,12.551,3.99,13.7c0.57,1.14,3.43-4.57,3.43-8.28
					s0.57-7.989,0-10.84c-0.57-2.85,1.36-9.99,0.25-13.979c-1.11-4-3.4-10.561-3.68-12.84
					C375.462,815.991,373.742,814.562,373.742,814.562z"/>
				<path fill="none" stroke="#FFFFFF" stroke-miterlimit="10" d="M473.153-162.599c0,290.87-0.03,498.94-0.12,499.8
					c-0.29,2.86,2.29,51.36,1.72,57.07c-0.56,5.71,3.42,29.67,4.19,41.94c0.76,12.27,0,55.89,0,55.89"/>
				<path fill="none" stroke="#FFFFFF" stroke-miterlimit="10" d="M432.242,481.011c0,0-1.15-35.95,0-39.66
					c1.14-3.71,1.71-28.25,1.71-35.95c0-7.71-1.65-18.55-1.11-28.82c0.34-6.48,0.74-17.94,0.4-27.54c-0.021-0.5-0.03-1-0.061-1.5
					c-0.06-1.5-0.149-2.95-0.26-4.31c-0.06-0.67-0.12-1.33-0.18-1.96c-0.141-1.26-0.3-2.43-0.48-3.47c-0.1-0.52-0.2-1-0.3-1.45
					c-0.04-0.16-0.08-0.31-0.11-0.45c-0.04-0.14-0.079-0.28-0.119-0.41c-0.4-1.35-0.4-67.86-0.131-177.5
					c0.011-4.11,0.021-8.29,0.03-12.52c0-1.08,0-2.16,0.01-3.24c0.021-7.58,0.04-15.35,0.061-23.3c0.02-6.82,0.04-13.76,0.06-20.84
					c0.011-2.36,0.011-4.73,0.021-7.12c0.01-3.58,0.02-7.19,0.029-10.83c0.011-4.01,0.03-8.05,0.04-12.13
					c0.011-5.82,0.03-11.71,0.051-17.68c0.01-2.4,0.02-4.81,0.029-7.24c0-2.7,0.011-5.42,0.021-8.15c0.01-2.02,0.01-4.06,0.02-6.1
					c0.011-1.87,0.011-3.76,0.021-5.65c0-1.31,0.01-2.63,0.01-3.95c0.01-2.51,0.021-5.03,0.03-7.56c0-0.53,0-1.06,0-1.59
					c0.01-2.82,0.02-5.65,0.029-8.5c0.011-3.07,0.021-6.17,0.03-9.28c0-1.55,0.01-3.11,0.021-4.67c0.01-3.32,0.02-6.67,0.029-10.03
					c0.011-2.96,0.021-5.92,0.03-8.91c0.021-6.43,0.04-12.93,0.07-19.49c0.01-2.59,0.01-5.18,0.03-7.79
					c0.01-3.87,0.02-7.76,0.039-11.68c0-2.14,0.011-4.3,0.021-6.46c0.01-2.91,0.02-5.84,0.03-8.77c0.01-4.41,0.029-8.84,0.05-13.29
					c0.01-2.96,0.02-5.94,0.03-8.93c0-0.96,0.01-1.93,0.01-2.89c0.01-1.71,0.01-3.42,0.02-5.13c0-1.83,0.011-3.66,0.021-5.5
					c0.01-4.53,0.03-9.08,0.05-13.66c0.02-5.74,0.04-11.53,0.07-17.34c-0.011-0.36-0.011-0.72,0-1.07c0.01-3.09,0.02-6.19,0.029-9.3
					"/>
				<path fill="none" stroke="#FFFFFF" stroke-miterlimit="10" d="M428.483,737.371c0,0,0.05,5.44,0.109,13.18
					c0.12,16.23,0.24,42.561-0.109,50.03c-0.03,0.71-0.061,1.46-0.08,2.24c-0.351,11.37,0.31,29.85,0.31,40.17
					c0,7.88,0,20.64,0,30.72c0,7.61-0.34,21.33-0.34,21.33"/>
				<path fill="none" stroke="#FFFFFF" stroke-miterlimit="10" d="M490.372,671.291c0.18,2.39,0.37,5.05,0.56,7.87c0,0,0,0,0,0.01
					c0.07,1.12,0.15,2.271,0.23,3.43v0.011c0.11,1.75,0.22,3.529,0.34,5.33c0,0.01,0,0.01,0,0.01c0.15,2.399,0.29,4.83,0.44,7.22
					c0,0-0.011,0,0,0.01c0.14,2.381,0.27,4.73,0.399,6.99c0,0-0.01,0.01,0,0.021c0.431,7.92,0.73,14.689,0.73,17.8
					c0,9.899,1.85,27.01,2.609,31.2c0.061,0.33,0.13,1.229,0.2,2.649c0,0,0,0.01,0,0.021c0.04,0.989,0.09,2.239,0.15,3.729
					c0,0.01,0,0.01,0,0.021c0.029,0.85,0.06,1.779,0.09,2.779c0,0.011,0,0.021,0,0.021c0.02,0.75,0.04,1.55,0.07,2.38
					c0,0.01,0,0.021,0,0.03c0.01,0.55,0.029,1.12,0.05,1.71c0,0.01,0,0.02,0,0.03c0.02,0.89,0.04,1.819,0.069,2.789
					c0,0.011,0,0.021,0,0.04c0.021,0.641,0.03,1.301,0.051,1.971c0,0.01,0,0.029,0,0.04c0.02,0.68,0.029,1.37,0.05,2.08
					c0,0.01,0,0.029,0,0.04c0.02,0.71,0.03,1.439,0.05,2.18c0.01,0.39,0.021,0.79,0.03,1.189c0.01,0.761,0.03,1.53,0.05,2.32
					c0,0.021,0,0.04,0,0.05c0.01,0.801,0.03,1.601,0.05,2.42c0.01,0.44,0.021,0.881,0.03,1.33c0.01,0.83,0.03,1.681,0.05,2.551
					c0.01,0.46,0.021,0.93,0.03,1.399c0.01,0.88,0.03,1.78,0.05,2.69c0.021,0.96,0.04,1.92,0.06,2.899
					c0.011,0.94,0.03,1.9,0.051,2.86c0.199,10.92,0.42,23.57,0.64,37.5c0.09,6.26,0.19,12.79,0.3,19.54
					c0.061,4.14,0.12,8.36,0.181,12.64c0.119,8.4,0.239,17.08,0.369,25.971c0.021,1.56,0.04,3.14,0.061,4.71
					c0.12,8.949,0.24,18.1,0.37,27.369c0.2,15.671,0.399,31.7,0.6,47.74c0.05,4.681,0.11,9.36,0.17,14.04
					c0.021,1.7,0.04,3.391,0.061,5.09c0.05,4.66,0.109,9.32,0.17,13.95c-0.01,0.11-0.01,0.22,0,0.32
					c0.029,3.05,0.069,6.1,0.109,9.13c-0.01,0.11-0.01,0.22,0,0.33c0.051,4.6,0.101,9.17,0.16,13.71c-0.01,0.11,0,0.22,0,0.34
					c0.08,7.63,0.17,15.17,0.26,22.57c-0.01,0.109-0.01,0.229,0,0.34c0.061,5.899,0.12,11.7,0.19,17.399
					c0.01,1.57,0.03,3.131,0.05,4.681c0.03,2.76,0.05,5.49,0.09,8.189c0.011,1.53,0.03,3.051,0.04,4.561
					c0.03,2.66,0.061,5.29,0.091,7.89c0.06,6.23,0.119,12.28,0.18,18.101c0.01,1.79,0.03,3.56,0.05,5.31
					c0.01,1.35,0.021,2.69,0.04,4.02c0.01,1.101,0.02,2.19,0.03,3.271c0.01,0.71,0.01,1.42,0.02,2.12
					c0.01,1.07,0.021,2.13,0.03,3.18c0.01,0.69,0.01,1.37,0.02,2.05c0,1.03,0.011,2.061,0.03,3.07c-0.01,0.11,0,0.22,0,0.33
					c0.01,1.01,0.01,2.01,0.03,3c-0.01,0.11,0,0.21,0,0.32c0.01,0.989,0.01,1.96,0.03,2.93c-0.011,0.1-0.011,0.21,0,0.31
					c0.01,1.5,0.02,2.971,0.04,4.41c-0.011,0.101,0,0.2,0,0.3c0.01,1.44,0.02,2.851,0.039,4.23c-0.01,0.1-0.01,0.2,0,0.3
					c0.171,20.54,0.261,34.84,0.221,39.851c0,0.869-0.01,1.46-0.021,1.75c0,0.01,0,0.01,0,0.01"/>
				<path fill="none" stroke="#FFFFFF" stroke-miterlimit="10" d="M477.952,570.771c-0.021-0.08-0.04-0.16-0.061-0.22
					c-0.029-0.09-0.05-0.17-0.069-0.21c-0.011-0.01,0-0.01,0-0.01c-0.03-0.04-0.04-0.06-0.05-0.06c-0.011,0-0.011,0.01-0.011,0.03
					c-0.21,0.86,2.86,20.75,4.931,34.6v0.01c0.319,2.18,0.619,4.22,0.89,6c0.07,0.51,0.14,1,0.21,1.46c0.1,0.7,0.19,1.36,0.28,1.95
					c0.05,0.399,0.1,0.76,0.149,1.1c0.04,0.34,0.08,0.65,0.12,0.93c0.09,0.7,0.15,1.221,0.17,1.5c0.13,1.841,1.04,10.36,2.04,19.301
					c0.12,1.06,0.24,2.13,0.37,3.199c0.03,0.36,0.08,0.721,0.12,1.091c0.12,1.06,0.24,2.12,0.36,3.159
					c0.489,4.29,0.97,8.261,1.34,11.131c0.03,0.319,0.069,0.63,0.12,0.92c0.05,0.43,0.1,0.83,0.16,1.199c0,0-0.011,0,0,0.011
					c0.149,1.1,0.26,1.87,0.34,2.22c0.029,0.13,0.06,0.35,0.109,0.64c0,0.061,0.011,0.13,0.021,0.19c0.01,0.13,0.03,0.27,0.05,0.42
					v0.01c0.02,0.15,0.03,0.32,0.05,0.49c0.03,0.36,0.07,0.77,0.12,1.21c0.18,2.01,0.41,4.86,0.66,8.23"/>
				<path fill="none" stroke="#FFFFFF" stroke-miterlimit="10" d="M428.372,895.041c-2.68-0.92-6.69-3.18-15.88-3.04"/>
				<polyline fill="none" stroke="#FFFFFF" stroke-miterlimit="10" points="384.242,891.911 384.042,891.921 377.722,892.101 				
					"/>
				<path fill="none" stroke="#FFFFFF" stroke-miterlimit="10" d="M277.472,927.112c2.69-1.87,27.34-3.16,27.34-3.16
					c5.85,0.13,35.6,3.89,38.65,4.47c3.04,0.57,61.69,3.8,65.37,5.7c0.46,0.24,1.08,0.5,1.8,0.77c0.55,0.2,1.16,0.41,1.81,0.631
					c1.09,0.359,2.3,0.729,3.54,1.1c1.74,0.52,3.55,1.03,5.19,1.5c0.7,0.2,1.37,0.4,1.99,0.58c0.41,0.12,0.8,0.24,1.16,0.34
					c0.37,0.12,0.7,0.22,1,0.32c0.899,0.29,1.5,0.52,1.64,0.66c0.46,0.46-0.53,92.97-1.38,165.43c-0.04,3.25-0.08,6.46-0.11,9.62
					c-0.029,1.67-0.05,3.33-0.06,4.96c-0.04,3.109-0.08,6.17-0.11,9.149c0,0.051,0,0.101,0,0.15c-0.029,2.23-0.06,4.42-0.08,6.58
					c-0.01,0.04-0.01,0.08,0,0.13c-0.029,2.15-0.06,4.26-0.08,6.33c0,0.04,0,0.08,0,0.12c-0.02,1.37-0.04,2.71-0.05,4.03
					c0,0.04,0,0.079,0,0.109c-0.13,10.17-0.24,19.08-0.319,26.17c0,0.011-0.011,0.021,0,0.04c-0.141,10.88-0.221,17.46-0.221,17.71
					l76.96-0.27"/>
				<path fill="none" stroke="#FFFFFF" stroke-miterlimit="10" d="M352.632,892.101c-36.98-0.92-36.32,0.66-41.28,1.711
					c-0.67,0.14-1.45,0.229-2.28,0.289c-0.01,0.011-0.01,0-0.01,0c-2.09,0.15-4.57,0.08-6.81-0.029c-0.09-0.01-0.18-0.01-0.27-0.021
					c-0.58-0.029-1.15-0.06-1.68-0.09c-0.1-0.01-0.19-0.01-0.28-0.02c-0.3-0.011-0.59-0.03-0.87-0.051
					c-1.15-0.06-2.08-0.109-2.61-0.09c-0.08,0-0.15,0-0.21,0.011l-48.36-4.78c0,0,16.51,10.8,17.26,10.8c0.03,0,0.05,0.01,0.07,0.03
					c0.27,0.21,0.29,1.68,0.1,3.319c-0.22,1.891-0.7,4.011-1.37,4.7c-0.1,0.101-0.2,0.17-0.3,0.2c-0.06,0.02-0.1,0.04-0.13,0.08
					c-0.02,0-0.03,0.01-0.04,0.04c-0.04,0.07-0.01,0.16,0.1,0.27c0.02,0.03,0.05,0.061,0.09,0.091c0.59,0.51,2.27,1.3,3.39,2.039
					c0.06,0.051,0.12,0.091,0.18,0.131c0.17,0.119,0.33,0.239,0.47,0.359c0.04,0.04,0.08,0.08,0.12,0.12
					c0.3,0.3,0.41,0.58,0.19,0.811c-0.08,0.09-0.2,0.159-0.37,0.229c-0.16,0.061-0.27,0.13-0.35,0.22
					c-0.27,0.271-0.04,0.63,0.43,1.08c0.05,0.061,0.1,0.101,0.15,0.141c0.1,0.1,0.21,0.199,0.33,0.3c0.12,0.109,0.25,0.22,0.38,0.32
					c0.13,0.119,0.26,0.239,0.4,0.35c0.2,0.189,0.41,0.38,0.62,0.58c0.07,0.07,0.14,0.13,0.2,0.2c1.34,1.37,2.47,3.17,1.34,5.5
					c-0.62,1.279-0.61,1.92-0.24,2.25c1.14,1.029,5.68-0.721,6.48,3.92"/>
				<path fill="none" stroke="#FFFFFF" stroke-miterlimit="10" d="M487.632,644.572c0.42-0.771,9.101-4.45,11.46-5.931
					c2-1.25,15.22-3.149,25.49-4.42c0,0,5.479-0.779,6.979,0c1.5,0.78-2.05,2-3.55,3.42c-1.5,1.421,1.67,3.58,2,4.75
					c0.33,1.171-3.41,4.271-3.41,4.271c-10.199,1.9-24.149,4.57-25.46,5.8c-2.04,1.9-9.609,5.14-10.029,5.9
					c-0.41,0.75-0.62,11.02-0.74,12.83c0,0.029,0,0.06,0,0.08c0,0.01,0,0.01,0,0.02"/>
			</g>
		</g>
	</g>
</g>
</svg>
