<?xml version="1.0" encoding="utf-8"?>
<!-- Generator: Adobe Illustrator 16.0.0, SVG Export Plug-In . SVG Version: 6.00 Build 0)  -->
<!DOCTYPE svg PUBLIC "-//W3C//DTD SVG 1.1//EN" "http://www.w3.org/Graphics/SVG/1.1/DTD/svg11.dtd">
<svg version="1.1" xmlns="http://www.w3.org/2000/svg" xmlns:xlink="http://www.w3.org/1999/xlink" x="0px" y="0px"
	 width="841.89px" height="1190.55px" viewBox="0 0 841.89 1190.55" style="enable-background:new 0 0 841.89 1190.55;"
	 xml:space="preserve">
<style type="text/css">
<![CDATA[
	.st0{fill:none;stroke:#FFFFFF;stroke-miterlimit:10;}
	.st1{display:inline;fill:#19351A;stroke:#000000;stroke-width:0.25;stroke-miterlimit:10;}
	.st2{fill:#FFFFFF;}
	.st3{display:none;}
	.st4{display:inline;fill:none;stroke:#FFFFFF;stroke-miterlimit:10;}
]]>
</style>
<g id="Layer_2" class="st3">
	<rect x="114" y="294" class="st4" width="485" height="885"/>
	<rect x="24.78" y="15.761" class="st1" width="798.08" height="1163.239"/>
</g>
<g id="Layer_1">
	<g id="XMLID_1_">
		<g>
			<path class="st2" d="M382.429,421.854c-0.43,0.29-1.34,0.75-2.15,0.02c0.34-0.58,1.58-2.12,1.9-2.27
				c0.12-0.06,0.26-0.12,0.43-0.16c0.76,0.04,0.61,0.92,0.61,0.92C383.219,421.543,383.279,421.264,382.429,421.854z"/>
			<path class="st2" d="M371.579,418.884c-0.75,1.96-1.78,1.42-2.44,1.38l-0.1-0.01c0.07-0.87,0.1-1.76,0.1-2.6
				C370.829,416.974,371.519,417.773,371.579,418.884z"/>
		</g>
		<g>
			<path class="st0" d="M323.599,648.424c0.39,0-12.84,65.109-11.71,72.2c1.14,7.13,0.86,11.979,1.71,12.55
				c0.86,0.569,30.82,6.56,33.39,4.279c2.56-2.279,44.22-5.989,48.79-11.979c4.56-5.99,19.68,7.7,22.54,5.71
				c0.86-0.6,2.15-0.35,3.59,0.28c3.331,1.46,7.39,4.97,8.39,4.56c0.21-0.08,0.7-0.229,1.38-0.43c3.83-1.11,13.8-3.73,15.74-4.7
				c2.28-1.14-6.28-118.13-12.84-122.69c-6.561-4.569,1.71-61.629,1.71-63.06c0-1.42,1.71-63.06-0.851-65.91
				c-2.569-2.85-8.85-2.85-10.56-4.28c-1.561-1.3-10.24-10.67-13.49-10.36c-0.32,0.03-0.58,0.15-0.78,0.37
				c-2.28,2.57-8.84,13.98-8.27,16.55c0.57,2.57-5.42,25.68-3.14,27.39c2.28,1.72-11.41,2-12.55,0.86s-0.29-28.53-7.14-28.53
				c-5.24,0-12.55-8.08-15.68-11.87c-0.96-1.16-1.53-1.92-1.53-1.92s-12.51,9.53-17.5,12.25c-0.65,0.35-1.17,0.59-1.52,0.68
				c-3.05,0.76-28.16,8.37-30.44,23.59c-2.28,15.22-10.36,32.62-9.51,42.61c0.85,9.98-2.57,41.08-2.57,41.08s5.71,30.53,7.71,32.25
				c1.99,1.71,14.55,29.391,15.12,28.53"/>
			<path class="st0" d="M482.139,490.324c-2.28-1.36-4.45-2.67-6.189-4.53c-4.561-4.85-17.971-5.99-19.11-5.42
				c-1.15,0.57-0.86,1.71,0,3.71c0.85,2-13.99,2.85-13.41,7.99c0.57,5.14,2.74,2.28,4.37,2.28c1.62,0-4.66,3.14-2.95,4.57
				c1.71,1.43-0.85,5.13,1.71,5.7c2.57,0.57,0,2,2.57,2.86c2.57,0.85,18.26,2.85,20.83,2.28c2.57-0.57,7.42,4.85,11.13,2.85v57.07
				c0,0,19.4-15.12,21.11-24.25s6.85,3.7,6.85-8.85c0-12.55-11.13-17.69-13.98-20.26c-2.85-2.56,2.57-8.56-2.279-16.55
				C489.789,494.833,485.818,492.514,482.139,490.324z"/>
			<path class="st0" d="M323.589,648.434c0,0,0,0,0.01-0.01c0.52-0.34,17.21-11.28,23.39-21.11c6.27-9.979-0.86-9.13,0-9.979
				c0.85-0.86-1.72-9.42-5.14-13.131c-3.42-3.71-4.24-6.84-5.26-8.56c-1.02-1.71-3.3-7.99-3.3-7.99s-0.57-6.84-0.29-8.55"/>
			<path class="st0" d="M344.799,630.453c0.95-0.659,20.26-8.88,20.26-11.119"/>
			<path class="st0" d="M364.229,469.233c0,0,3.76-3.85,9.95-7.06c4.1-2.12-1.87-2.3-4.97-3.91c-2.63-1.35-2.31-4.26-1.97-6.14
				c0.58-3.09-0.5-5.85-0.5-6.99c0-1.14-2.71-10.19-2.67-11.82s2.79-7.86,3.94-8.71c0.53-0.4,0.87-2.28,1.03-4.35
				c0.07-0.87,0.1-1.76,0.1-2.6c0.01-1.47-0.09-2.74-0.28-3.33c-0.57-1.71,2.28-11.98,3.99-13.69c1.72-1.71-4.07-2.57-2.46-4.85
				c1.61-2.28,6.46-5.71,10.45-5.71c4,0,11.7,0.57,13.99,0c2.28-0.57,13.41,0.57,15.12,2.28c1.71,1.72,6.56,4,7.99,5.71
				c1.42,1.71,8.84,10.56,9.7,13.13c0.86,2.56,1.43,10.27,1.99,12.27c0.58,1.99,1.43,5.13,0,9.12c-1.42,4-2.561,4.57-4.271,6.57
				c-1.72,2-5.14,4.56-4.85,7.42c0.28,2.85,2.85,3.7,0.85,8.84c-2,5.14-5.13,4.85-5.13,4.85s-3.71,0.57-4.57,0.57
				c-0.86,0-2.57,0-2.57,0s-1.42,0.57-1.42,1.43s2.3,1.94,3.72,2.33"/>
			<path class="st0" d="M372.849,400.634c0,0,6.57,1.29,9.61,0c3.05-1.29,7.8,0.15,8.37,0.57c0.57,0.42,5.41,4.8,6.41,4.8
				c1.01,0,3.67,1.9,4.05,3.42c0.38,1.52,0.76,4.57,0.76,4.57s-1.52,2.09-0.95,3.61c0.57,1.52,1.9,2.66,2.1,3.99
				c0.19,1.34,1.33,3.62,1.33,5.33c0,1.71-0.95,4,0,5.9s3.99-0.57,7.41,0c3.43,0.57,6.09,0.95,6.28,1.9s-1.52,4.37-1.52,5.32
				c0,0.96-2.28,0.77-2.28,1.91s-3.62,1.33-3.62,2.85s-1.45,6.49-1.08,8.5c0.18,0.94-0.63,5.77-0.63,7.53"/>
			<path class="st0" d="M381.029,423.333c0.45,0.47,2.05,0.71,2.5,0.71s2.03-0.66,1.87-0.43"/>
			<path class="st0" d="M380.269,421.874c-0.06,0.1-0.09,0.17-0.09,0.2c0,0.21,0.1,0.44,0.25,0.65"/>
			<path class="st0" d="M390.829,422.074l-2.28-1.45c0,0-1.81-1.31-2.85-1.41c-0.88-0.08-2.23-0.02-3.09,0.23
				c-0.17,0.04-0.31,0.1-0.43,0.16c-0.32,0.15-1.56,1.69-1.9,2.27"/>
			<path class="st0" d="M380.219,421.833c0.02,0.02,0.03,0.03,0.05,0.04h0.01c0.81,0.73,1.72,0.27,2.15-0.02
				c0.85-0.59,0.79-0.31,0.79-1.49c0,0,0.15-0.88-0.61-0.92c-0.01,0-0.01,0-0.02,0"/>
			<path class="st0" d="M369.139,417.654c1.69-0.68,2.38,0.12,2.44,1.23c0.01,0.1,0.01,0.2,0.01,0.3c-0.01,0.38-0.05,3.25-0.45,4.51
				"/>
			<path class="st0" d="M369.139,420.264c0.66,0.04,1.69,0.58,2.44-1.38c0.01-0.02,0.01-0.03,0.02-0.05"/>
			<path class="st0" d="M346.989,737.453c-0.86,3.711-1.4,31.78-1.59,33.57c-1.17,11.23,1.69,28.23,3.68,33.58
				c4.28,11.51,5.61,20.44,5.61,21.59c0,1.141,3.55,15.32,4.66,19.49c1.62,6.09,1.33,15.89,1.62,16.75c1.06,3.2,1.78,5.73,1.42,6.56
				c-1.72,4.021-5.9,11.32-6.01,13.511c-0.29,5.729-1.12,16.97-0.88,20.68c0.14,2.17-0.53,9.75,4.04,12.32
				c4.57,2.56,10.46,3.66,12.55,3.66c2.29,0,7.45-1.551,8.47-4.521c0.52-1.52,0.08-10.67,0.27-12.63c0.11-1.09,0.03-7.44-0.01-11.69
				c-0.02-1.689-0.03-3.04-0.02-3.609c0.03-1.99,1.03-5.57,0.74-11.761c-0.29-6.43,5.07,12.95,5.68,14.58
				c0.08,0.2,0.15,0.4,0.22,0.601c1.11,2.87,2.26,5.01,2.86,6.72c0.43,1.23,3.58,6.03,7.62,7.66c2.99,1.21,11.55,1.79,14.83-1.64
				c1.79-1.87,3.32-7.75,3.18-9.74c-0.03-0.37-0.11-1.45-0.43-2.87c-0.44-1.95-1.34-4.53-3.18-6.72
				c-2.35-2.801-10.17-9.511-10.46-11.23c-0.28-1.71-3.04-7.61-3.33-10.18c-0.28-2.57-0.19-9.69-0.19-11.69
				c0-3.029,4.05-16.149,4.4-18.72c0.74-5.53,6.76-22.48,7.59-28.36c0.71-5.06,1.71-15.05,0.57-20.899
				c-1.06-5.44-1.14-28.74-0.86-33.021c0.29-4.279,5.71-10.56,5.71-11.99c0-1.43,6.16-5.989,6.16-5.989"/>
			<path class="st0" d="M376.939,812.783c0,1.71-1.99,9.98-1.99,10.841c0,0.859,1.14,13.13,1,14.27c-0.15,1.14-1.29,9.98-1,10.84
				c0.28,0.86,3.42,12.55,3.99,13.7c0.57,1.14,3.43-4.57,3.43-8.28s0.57-7.989,0-10.84c-0.57-2.85,1.36-9.99,0.25-13.979
				c-1.11-4-3.4-10.561-3.68-12.841C378.659,814.214,376.939,812.783,376.939,812.783z"/>
			<path class="st0" d="M482.139,490.324c0,0,0.76-43.62,0-55.89c-0.77-12.27-4.76-36.23-4.189-41.94
				c0.569-5.71-2.011-54.21-1.721-57.07c0.29-2.85-0.02-2307.24-0.02-2307.24"/>
			<path class="st0" d="M435.438,479.233c0,0-1.149-35.95,0-39.66c1.141-3.71,1.71-28.25,1.71-35.95c0-7.71-1.649-18.55-1.109-28.82
				s1.229-33.1-1.11-41.09c-2.35-7.99,9.12-2300.39,8.48-2305.53"/>
			<path class="st0" d="M431.679,735.594c0,0,0.521,52.18,0,63.21c-0.52,11.03,0.23,31.38,0.23,42.41c0,7.88,0,20.64,0,30.72
				c0,7.61-0.341,21.33-0.341,21.33"/>
			<path class="st0" d="M504.679,1185.073c0.48-10.569-4.21-425.949-5.86-434.97c-0.76-4.189-2.609-21.3-2.609-31.2
				c0-9.89-3.04-56.87-3.71-59.91c-0.66-3.05-4.561-38.239-4.851-42.229c-0.279-3.99-8.13-53.07-6.56-47.08"/>
			<path class="st0" d="M431.568,893.264c-2.68-0.92-6.689-3.18-15.879-3.04"/>
			<line class="st0" x1="387.439" y1="890.134" x2="380.919" y2="890.323"/>
			<path class="st0" d="M355.829,890.323c-36.98-0.92-36.32,0.66-41.28,1.71c-4.37,0.92-13.31-0.159-15.02,0"/>
			<path class="st0" d="M312.799,921.504c1.14,0,30.81,4.56,33.86,5.14c3.04,0.57,61.69,3.8,65.37,5.7
				c3.68,1.899,17.37,5.14,18.13,5.899c0.76,0.761-2.33,245.301-2.33,246.83"/>
			<path class="st0" d="M529.799,644.884c-10.2,1.899-24.15,4.569-25.46,5.8c-2.04,1.9-9.61,5.14-10.03,5.9
				c-0.42,0.76-0.63,11.409-0.74,12.93"/>
			<path class="st0" d="M527.779,632.443c-10.271,1.271-25.551,3.16-26.921,4.45c-2.04,1.9-9.609,5.13-10.029,5.9"/>
		</g>
	</g>
</g>
</svg>
